# xmcd CD database file
#
# Track frame offsets:
#	183
#	28458
#	44208
#	61758
#	76408
#	96333
#	109683
#	128283
#	152283
#	166195
#
# Disc length: 2396 seconds
#
# Revision: 2
# Processed by: cddbd v1.5.2PL0 Copyright (c) Steve Scherf et al.
# Submitted via: CDex 1.60beta1-cs1
#
DISCID=76095a0a
DTITLE=Elek Bacsik - The Electric Guitar Of The Eclectic Elek Bacsic
DYEAR=1962
DGENRE=Jazz
TTITLE0=Blue Rondo a La Turk
TTITLE1=Angel Eyes
TTITLE2=Godchild
TTITLE3=Take Five
TTITLE4=Willow Weep For Me
TTITLE5=Opus De Funk
TTITLE6=My Old Flame
TTITLE7=On Green Dolphin Street
TTITLE8=Nuages
TTITLE9=Milestones
EXTD=YEAR: 1962
EXTT0=
EXTT1=
EXTT2=
EXTT3=
EXTT4=
EXTT5=
EXTT6=
EXTT7=
EXTT8=
EXTT9=
PLAYORDER=
